<?xml version="1.0" encoding="UTF-8" standalone="no"?>
<!-- Created with Inkscape (http://www.inkscape.org/) -->

<svg
   xmlns:osb="http://www.openswatchbook.org/uri/2009/osb"
   xmlns:dc="http://purl.org/dc/elements/1.1/"
   xmlns:cc="http://creativecommons.org/ns#"
   xmlns:rdf="http://www.w3.org/1999/02/22-rdf-syntax-ns#"
   xmlns:svg="http://www.w3.org/2000/svg"
   xmlns="http://www.w3.org/2000/svg"
   xmlns:sodipodi="http://sodipodi.sourceforge.net/DTD/sodipodi-0.dtd"
   xmlns:inkscape="http://www.inkscape.org/namespaces/inkscape"
   width="286.38318mm"
   height="140.43292mm"
   viewBox="0 0 286.38318 140.43292"
   version="1.1"
   id="svg8"
   inkscape:version="0.92.2 5c3e80d, 2017-08-06"
   sodipodi:docname="silvergate.svg">
  <defs
     id="defs2">
    <linearGradient
       id="linearGradient4508"
       osb:paint="solid">
      <stop
         style="stop-color:#000000;stop-opacity:1;"
         offset="0"
         id="stop4506" />
    </linearGradient>
  </defs>
  <sodipodi:namedview
     id="base"
     pagecolor="#ffffff"
     bordercolor="#666666"
     borderopacity="1.0"
     inkscape:pageopacity="0.0"
     inkscape:pageshadow="2"
     inkscape:zoom="1"
     inkscape:cx="504.99663"
     inkscape:cy="291.35642"
     inkscape:document-units="mm"
     inkscape:current-layer="layer1"
     showgrid="false"
     showguides="true"
     inkscape:guide-bbox="true"
     inkscape:window-width="1920"
     inkscape:window-height="1155"
     inkscape:window-x="0"
     inkscape:window-y="1"
     inkscape:window-maximized="1">
    <sodipodi:guide
       position="190.81661,100.57703"
       orientation="0,1"
       id="guide5465"
       inkscape:locked="false" />
    <sodipodi:guide
       position="95.566586,80.866344"
       orientation="1,0"
       id="guide5514"
       inkscape:locked="false" />
  </sodipodi:namedview>
  <metadata
     id="metadata5">
    <rdf:RDF>
      <cc:Work
         rdf:about="">
        <dc:format>image/svg+xml</dc:format>
        <dc:type
           rdf:resource="http://purl.org/dc/dcmitype/StillImage" />
        <dc:title></dc:title>
      </cc:Work>
    </rdf:RDF>
  </metadata>
  <g
     inkscape:label="Layer 1"
     inkscape:groupmode="layer"
     id="layer1"
     transform="translate(27.511911,-11.786021)">
    <rect
       id="desk0"
       width="95.133583"
       height="59.133587"
       x="68.054672"
       y="-71.352608"
       style="fill:none;fill-opacity:1;stroke:#000000;stroke-width:0.866;stroke-miterlimit:4;stroke-dasharray:none;stroke-opacity:1"
       transform="scale(1,-1)">
      <desc
         id="desc4655">This is Desk #1</desc>
      <title
         id="title4653">Desk 1</title>
    </rect>
    <ellipse
       style="fill:none;fill-opacity:1;stroke:#000000;stroke-width:0.22040129;stroke-miterlimit:4;stroke-dasharray:none;stroke-opacity:1"
       id="powersource0"
       cx="114.80006"
       cy="81.6278"
       rx="6.8897991"
       ry="6.8897996">
      <desc
         id="desc5477">This is Power Source 1</desc>
      <title
         id="title5475">Power Source 1</title>
    </ellipse>
    <g
       id="powerindicator0"
       transform="matrix(0.01720359,0,0,0.015625,110.40491,78.190558)">
      <g
         id="g5398">
        <g
           id="g5396">
          <path
             id="path5394"
             d="m 400.388,175.787 c -1.707,-3.413 -4.267,-5.12 -7.68,-5.12 H 292.015 L 391.855,12.8 c 1.707,-2.56 1.707,-5.973 0,-8.533 C 390.148,1.707 387.588,0 384.175,0 H 247.642 c -3.413,0 -5.973,1.707 -7.68,4.267 l -128,256 c -1.707,2.56 -1.707,5.973 0,8.533 1.707,2.56 5.12,4.267 7.68,4.267 h 87.893 l -95.573,227.84 c -1.707,3.413 0,7.68 3.413,10.24 0.853,0.853 2.56,0.853 4.267,0.853 2.56,0 5.12,-0.853 6.827,-2.56 L 399.536,185.173 c 1.706,-2.56 2.559,-5.973 0.852,-9.386 z m -250.88,279.04 78.507,-187.733 c 0.853,-2.56 0.853,-5.12 -0.853,-7.68 -1.707,-1.707 -4.267,-3.413 -6.827,-3.413 h -87.04 L 252.762,17.067 H 368.815 L 268.122,174.933 c -1.707,2.56 -1.707,5.973 0,8.533 1.707,2.56 4.267,4.267 7.68,4.267 h 98.987 z"
             inkscape:connector-curvature="0" />
        </g>
      </g>
    </g>
    <rect
       transform="scale(1,-1)"
       style="fill:none;fill-opacity:1;stroke:#000000;stroke-width:0.866;stroke-miterlimit:4;stroke-dasharray:none;stroke-opacity:1"
       y="-151.78595"
       x="68.054672"
       height="59.133587"
       width="95.133583"
       id="desk3">
      <desc
         id="desc5508">This is Desk #2</desc>
      <title
         id="title5510">Desk 2</title>
    </rect>
    <rect
       transform="scale(1,-1)"
       style="fill:none;fill-opacity:1;stroke:#000000;stroke-width:0.866;stroke-miterlimit:4;stroke-dasharray:none;stroke-opacity:1"
       y="-110.77551"
       x="163.30469"
       height="59.133587"
       width="95.133583"
       id="desk1">
      <desc
         id="desc5516">This is Desk #2</desc>
      <title
         id="title5518">Desk 2</title>
    </rect>
    <rect
       id="rect5526"
       width="95.133583"
       height="59.133587"
       x="-27.078911"
       y="-110.77551"
       style="fill:none;fill-opacity:1;stroke:#000000;stroke-width:0.866;stroke-miterlimit:4;stroke-dasharray:none;stroke-opacity:1"
       transform="scale(1,-1)"
       inkscape:label="#desk3">
      <desc
         id="desc5522">This is Desk #4</desc>
      <title
         id="title5524">Desk 4</title>
    </rect>
  </g>
</svg>
